Coordinates
version=1
nRows=21
nColumns=34
inDegrees=no

Units are S.I. units (second, meters, Newtons, ...)
If the header above contains a line with 'inDegrees', this indicates whether rotational values are in degrees (yes) or radians (no).

endheader
time	pelvis_tilt	pelvis_list	pelvis_rotation	pelvis_tx	pelvis_ty	pelvis_tz	hip_flexion_r	hip_adduction_r	hip_rotation_r	knee_angle_r	ankle_angle_r	subtalar_angle_r	mtp_angle_r	hip_flexion_l	hip_adduction_l	hip_rotation_l	knee_angle_l	ankle_angle_l	subtalar_angle_l	mtp_angle_l	lumbar_extension	lumbar_bending	lumbar_rotation	arm_flex_r	arm_add_r	arm_rot_r	elbow_flex_r	pro_sup_r	arm_flex_l	arm_add_l	arm_rot_l	elbow_flex_l	pro_sup_l
0.47	-0.00575414	-0.105408	-0.0881927	0.384476	1.04259	-0.166126	-0.166352	0.151977	-0.1068	0.070054	0.353296	0.444156	-0.018011	0.494257	-0.169149	-0.149493	0.317027	-0.0535604	0.0639043	-0.0180264	-0.0906018	0.098647	0.166053	0.107007	-0.262288	0.0512749	0.771735	1.75488	-0.310311	-0.143257	0.272752	0.481673	1.51271
0.48	-0.00448282	-0.0991478	-0.0916543	0.397172	1.04078	-0.16665	-0.17532	0.140253	-0.12247	0.082848	0.371674	0.465357	-0.018011	0.476339	-0.157145	-0.160469	0.241548	-0.0677774	0.0852259	-0.0180264	-0.0917121	0.092108	0.168763	0.112567	-0.263686	0.05204	0.780967	1.7592	-0.319831	-0.142094	0.275706	0.479588	1.51091
0.49	-0.00290791	-0.0925256	-0.0949562	0.410034	1.03894	-0.167255	-0.183915	0.127723	-0.138742	0.0970389	0.390013	0.485712	-0.0180111	0.458906	-0.144302	-0.166711	0.172838	-0.074533	0.101922	-0.0180264	-0.0928324	0.0851613	0.171172	0.117333	-0.265002	0.0527959	0.790057	1.76272	-0.328295	-0.140919	0.278966	0.476997	1.50903
0.5	-0.00105117	-0.0856441	-0.0979584	0.423061	1.03711	-0.167946	-0.192234	0.11465	-0.15473	0.112369	0.407767	0.504001	-0.0180111	0.442823	-0.130993	-0.16758	0.113226	-0.0730312	0.113462	-0.0180264	-0.0939418	0.0779161	0.173182	0.121272	-0.2662	0.053507	0.798905	1.76537	-0.33559	-0.139796	0.282686	0.47379	1.50717
0.51	0.00110137	-0.0785658	-0.100526	0.436247	1.03532	-0.168721	-0.20044	0.101244	-0.169672	0.128554	0.424354	0.519289	-0.0180111	0.428693	-0.117567	-0.163192	0.0645239	-0.063435	0.119856	-0.0180265	-0.0950508	0.0704271	0.17469	0.124334	-0.267219	0.0541036	0.80741	1.76715	-0.341629	-0.138797	0.287006	0.469848	1.50546
0.52	0.00361666	-0.0712842	-0.102567	0.449598	1.03362	-0.169577	-0.208738	0.0875803	-0.183098	0.145336	0.439223	0.531168	-0.0180112	0.416692	-0.104242	-0.154353	0.0276537	-0.0469549	0.121565	-0.0180265	-0.0962006	0.0626582	0.175615	0.126451	-0.26799	0.0544928	0.815473	1.76814	-0.346354	-0.137994	0.292036	0.46507	1.50408
0.53	0.00661293	-0.0637145	-0.104067	0.463136	1.03205	-0.170503	-0.217352	0.0735661	-0.19488	0.162532	0.45188	0.539803	-0.0180112	0.40647	-0.0910347	-0.142322	0.00239625	-0.0257879	0.119304	-0.0180265	-0.0974507	0.0544798	0.175915	0.127541	-0.268443	0.0545769	0.823001	1.76843	-0.349753	-0.137442	0.297824	0.459395	1.50317
0.54	0.0102371	-0.0557163	-0.105104	0.476898	1.03065	-0.171488	-0.226479	0.0589677	-0.205156	0.180066	0.461886	0.545789	-0.0180112	0.397193	-0.0777787	-0.128509	-0.0126039	-0.00287724	0.113804	-0.0180266	-0.0988667	0.0457025	0.175608	0.127517	-0.268524	0.0542763	0.829913	1.76812	-0.351861	-0.137169	0.304332	0.452822	1.50287
0.55	0.0146439	-0.0471181	-0.105827	0.490931	1.02949	-0.172526	-0.236259	0.0434849	-0.214182	0.197984	0.468826	0.54993	-0.0180113	0.38776	-0.0642089	-0.11422	-0.0194735	0.0185022	0.105635	-0.0180266	-0.100524	0.0361362	0.174762	0.126306	-0.268203	0.0535513	0.836129	1.76732	-0.352754	-0.137169	0.311421	0.445435	1.50329
0.56	0.0199721	-0.037786	-0.106426	0.505263	1.02859	-0.173604	-0.246728	0.0268266	-0.222204	0.216472	0.472284	0.552999	-0.0180113	0.377076	-0.0500522	-0.100479	-0.0206435	0.0352267	0.0951291	-0.0180266	-0.102499	0.0256305	0.173477	0.123871	-0.267481	0.0524115	0.841569	1.7661	-0.352532	-0.137407	0.318856	0.437399	1.50447
0.57	0.0263126	-0.0276489	-0.107094	0.5199	1.028	-0.174712	-0.257772	0.00878206	-0.229357	0.235863	0.471822	0.555534	-0.0180114	0.364283	-0.03511	-0.0879485	-0.018433	0.044767	0.0824044	-0.0180267	-0.104851	0.0141135	0.17185	0.120226	-0.266378	0.0509155	0.846142	1.76453	-0.351305	-0.137831	0.32633	0.42896	1.50647
0.58	0.0336786	-0.0167148	-0.107978	0.534826	1.02772	-0.175841	-0.269084	-0.0107353	-0.23562	0.256638	0.466968	0.557688	-0.0180114	0.348927	-0.0193051	-0.0769514	-0.0147592	0.0455164	0.0674714	-0.0180267	-0.107609	0.00160323	0.169947	0.115441	-0.264928	0.0491588	0.849739	1.76266	-0.34918	-0.138387	0.333499	0.42042	1.50928
0.59	0.0419824	-0.00506569	-0.109149	0.549996	1.02776	-0.176986	-0.280144	-0.0316742	-0.240814	0.279418	0.45723	0.559153	-0.0180114	0.331025	-0.00268773	-0.067552	-0.0109858	0.036964	0.0503744	-0.0180268	-0.110747	-0.0118034	0.167768	0.10965	-0.263162	0.047256	0.852237	1.76055	-0.346246	-0.139036	0.340029	0.41212	1.51289
0.6	0.0510173	0.00716224	-0.110577	0.565337	1.0281	-0.178144	-0.290211	-0.0538643	-0.244636	0.304946	0.442121	0.559157	-0.0180115	0.311062	0.0145955	-0.059672	-0.00789323	0.0197083	0.0313271	-0.0180268	-0.114178	-0.0259631	0.165233	0.103037	-0.26109	0.0453201	0.8535	1.75826	-0.342565	-0.139768	0.345621	0.40441	1.51729
0.61	0.0603375	0.0198136	-0.112132	0.580752	1.02868	-0.179307	-0.298374	-0.0770594	-0.246726	0.334058	0.421208	0.556552	-0.0180115	0.289883	0.0323556	-0.0531965	-0.00572653	-0.0046699	0.0108027	-0.0180268	-0.117789	-0.0407288	0.162184	0.0958276	-0.2587	0.0434439	0.853394	1.75592	-0.338174	-0.140614	0.350036	0.397633	1.52246
0.62	0.0694889	0.0328048	-0.113594	0.596136	1.02947	-0.180482	-0.303544	-0.100974	-0.246736	0.367608	0.394159	0.549989	-0.0180116	0.268606	0.0503934	-0.0480415	-0.00432849	-0.0338479	-0.010446	-0.0180269	-0.121357	-0.0559597	0.158409	0.0882631	-0.25595	0.0416834	0.851806	1.75366	-0.333078	-0.141643	0.353105	0.392106	1.52837
0.63	0.0779605	0.0460903	-0.114711	0.61138	1.0304	-0.181676	-0.304526	-0.125342	-0.244402	0.406388	0.360799	0.53815	-0.0180116	0.248421	0.0685607	-0.0441669	-0.00327259	-0.0650838	-0.0314424	-0.0180269	-0.124565	-0.0715597	0.153679	0.0805729	-0.252782	0.0400498	0.848669	1.75167	-0.327264	-0.142959	0.354728	0.388105	1.53501
0.64	0.0851998	0.0596709	-0.115241	0.626387	1.03144	-0.182898	-0.300139	-0.14994	-0.239586	0.451029	0.321158	0.520014	-0.0180117	0.230421	0.0867741	-0.0415531	-0.00200716	-0.0955664	-0.0511161	-0.018027	-0.12704	-0.0874764	0.147806	0.0729513	-0.249131	0.0385094	0.843976	1.75016	-0.320706	-0.144685	0.354875	0.38586	1.54234
0.65	0.0906693	0.0735745	-0.114998	0.641079	1.03251	-0.184157	-0.289335	-0.174585	-0.232287	0.501892	0.275502	0.495062	-0.0180117	0.215466	0.105002	-0.0401557	1.47772e-06	-0.122756	-0.0684654	-0.018027	-0.128399	-0.103679	0.140684	0.0655388	-0.244951	0.0369932	0.837798	1.74931	-0.313366	-0.146948	0.353592	0.385545	1.55028
0.66	0.0939184	0.087813	-0.11389	0.655397	1.03357	-0.185453	-0.271342	-0.199096	-0.222619	0.558967	0.224353	0.463363	-0.0180118	0.204081	0.123221	-0.0398568	0.00313617	-0.144673	-0.0827139	-0.018027	-0.128311	-0.120116	0.132331	0.0584139	-0.240228	0.0354157	0.830279	1.7493	-0.305204	-0.149859	0.350997	0.387269	1.55865
0.67	0.0946577	0.102328	-0.111936	0.669309	1.03458	-0.186777	-0.245798	-0.223232	-0.210763	0.621791	0.168506	0.425529	-0.0180118	0.196371	0.141368	-0.0404314	0.0075158	-0.160101	-0.0934249	-0.0180271	-0.126561	-0.136672	0.1229	0.0515955	-0.234997	0.033701	0.821628	1.7502	-0.296182	-0.153493	0.347298	0.391065	1.56715
